<?xml version="1.0" encoding="UTF-8"?>
<svg xmlns="http://www.w3.org/2000/svg" version="1.1" viewBox="0 0 850 90" width="850" height="90">
  <defs>
    <clipPath id="heartHeader">
      <path class="cls-1" d="M0,0v78.1c3.8.5,7.8,2,10.5,2.4l-3.3-2c12.8-1.1,14.3,3.6,25.1,1.9-12.4-3.8,3.7,0,4.6.2.5,0,0-.9,4-.6.3,0,2.9,1.2,5.3.9,1.4-.2-2.2-.7,0-.9,4.1-.5,5.2,2.3,9.3-1.9,2.3.8-2.9,3.2,2.6,3.1.9,0-.5-.8,4-.6.7,0-1.3.9,1.3.9,7.7.2,12.5-.9,13.2-.9s7.4,1.2,14.6,1.3c9.9,0,17-.9,23.2-1.3-5.1,0-2.6-.8-3.3-1.6l3.3,1.6c7.6-.4,15.5,1.9,25.1.5.4,0-.7-1.7,6-1.4l1.3,1.6c5.7-2.7,3.4-.2,6.6,0,2.8.2,3.5-.9,4-.9,7.2-.2,10,1.3,15.9,1.3,10.8,0,5.5-1.9,9.3-1.9s1.7,1.7,4,1.9c1.1,0,6.3-.6,6.6-.6,4.3,0,10.9.6,17.2.3,1.9,0,1.4-1,4-.9,2.5,0,.2,1.8,7.9,1.3l2-2c10.7-.7,5,2,8.6,2.3,4.9.5,6.2-.9,6.6-.9s.3,1.2,6.6.9c2.5,0,2.6-1.8,7.9,0,3.2-.9-2.2-3,5.3-2.5v2.5c8.3.5,4.3-1.2,7.9-1.3.4,0,2.9,1.1,6.6,1.3,4.4.2,2.4-.7,5.3-.6.5,0,1.2.9,9.3.6,8.6-.3,3.5-2,7.9-1.9,2.7,0,3.2,1.5,1.3,1.9,12.7-.9,35.4.9,46.3.3,2.3,0,.5-1.3,2.6-1.2,3.7,0,3.3.9,4,.9,6.7,0,11.2-1,11.9-.9,1.5,0,2.1.9,2.6.9,23.4.4,47.6-.2,71.6-.6,1.6,0,10.8.8,13.2.6,2.6-.2,1.6-1.2,2.6-1.3.8,0,3.3,1.7,15.9.9.5,0-1-.9,1.3-.9s.9.9,1.3.9c3,0,9.3-.3,11.9-.3,15.1,0,32.4.3,49,.3s2.1-.6,2.6-.6c1,0,.3.6,1.3.6,9.7,0,20.9.3,29.1,0,1.5,0,2.2-.9,2.6-.9,1,0,8.2,2.3,16.5.8-7.6-.3-4.5-1.4-2-3,8.4,2.7,6.5.6,7.9.6s5.5.9,6.6.9,2.1-1.7,7.9.9c8-1-.2-1.1,0-2.2,6.4,1,4-.9,6.6-.9s-.7.9,2,.8c7.9-.2-2.1-4.4,9.3-2.8l-.7,1.7c7.6-1.8,6.2,0,9.3,0,.8,0,8.7-3.2,5.3,0,5.8-.6,9.7,0,11.2-.8-11.7-.7,1.3-1.8,2-1.7.7,0,.7,1.5,4,1.3,7.9-.6-6.9-4.4,9.3-3.4,6.6.4,12.9,3.7,15.9,1.6,2.2,4.2,17.2.6,18.5.6s1.1.9,2.6.9c7,.3,12.9,0,18.5,1.9,6.2-5.2,4.8-3,21.2-2.8,3.5.4-1.5,1.8.7,2.7.4.2,7.2.9,9.3,1.6,1.9.6-.8,1.3,0,1.6,3,1,20.9,0,21.8-1.7-1.7,3.8,16,.6,23.8,2.2.6-2.1,7.3-3.2,2.6-4.7,6-.8,7.8,3.3,2,3.6,12.5,3.7,3.1-3.7,16.5-2.3,11.6,1.2-7.8,2.9-4,3.4,10,.2,22.2-.2,29.1.3-12.8-5,2.6-3.9,6.6-4,.6,0,1.2,0,1.7.2V0H0Z"/>
    </clipPath>
  </defs>
</svg>